<?xml version="1.0" encoding="UTF-8"?>
<svg xmlns="http://www.w3.org/2000/svg" version="1.1" viewBox="0 0 232.93 47.88">
  <defs>
    <style>
      .cls-1 {
        fill: #00487d;
      }

      .cls-2 {
        fill: #ffd600;
      }
    </style>
  </defs>
  <!-- Generator: Adobe Illustrator 28.6.0, SVG Export Plug-In . SVG Version: 1.2.0 Build 709)  -->
  <g>
    <g id="Ebene_1">
      <path class="cls-2" d="M.09.14l-.09,46.86,47,.09C21.03,46.96.04,25.97.09.14M.09,0H.09v.14S.09,0,.09,0"/>
      <path class="cls-1" d="M47.09.09l-29.02-.06c-.03,16.03,12.93,29.04,28.96,29.07l.06-29.02Z"/>
      <g>
        <path class="cls-1" d="M115.42,31.97c0,9.87-6.65,15.17-16.72,15.17h-21.35V.14h21.55c9.13,0,14.91,4.36,14.91,12.42,0,4.03-1.88,7.25-4.97,9.13,3.76,1.68,6.58,5.1,6.58,10.27ZM104.27,13.3c0-2.95-1.68-4.5-5.77-4.5h-11.95v8.93h12.42c3.89,0,5.3-1.81,5.3-4.43ZM105.75,32.1c0-4.03-2.15-6.04-6.71-6.04h-12.49v12.15h12.49c4.57,0,6.71-2.42,6.71-6.11Z"/>
        <path class="cls-1" d="M163.09,47.14h-9.4v-19.74h-19.27v19.74h-9.4V.14h9.4v17.99h19.27V.14h9.4v47Z"/>
        <path class="cls-1" d="M216.14,47.14h-11.28l-12.76-22.69-7.52,8.86v13.83h-9.4V.14h9.4v13.36c0,1.75-.07,5.98-.13,7.45.67-1.07,2.42-3.22,3.69-4.77L201.3.14h11.35l-13.76,16.25,17.26,30.75Z"/>
        <path class="cls-1" d="M232.93,41.57c0,3.42-2.89,6.31-6.31,6.31s-6.31-2.89-6.31-6.31,2.89-6.31,6.31-6.31,6.31,2.89,6.31,6.31Z"/>
      </g>
    </g>
  </g>
</svg>